<?xml version="1.0" encoding="UTF-8" standalone="no"?>
<!-- Created with Inkscape (http://www.inkscape.org/) -->

<svg
   xmlns:dc="http://purl.org/dc/elements/1.1/"
   xmlns:cc="http://creativecommons.org/ns#"
   xmlns:rdf="http://www.w3.org/1999/02/22-rdf-syntax-ns#"
   xmlns:svg="http://www.w3.org/2000/svg"
   xmlns="http://www.w3.org/2000/svg"
   xmlns:sodipodi="http://sodipodi.sourceforge.net/DTD/sodipodi-0.dtd"
   xmlns:inkscape="http://www.inkscape.org/namespaces/inkscape"
   width="500"
   height="500"
   viewBox="0 0 500.00001 500.00001"
   id="svg6822"
   version="1.1"
   inkscape:version="0.91 r13725"
   sodipodi:docname="cloud.svg">
  <defs
     id="defs6824" />
  <sodipodi:namedview
     id="base"
     pagecolor="#ffffff"
     bordercolor="#666666"
     borderopacity="1.0"
     inkscape:pageopacity="0.0"
     inkscape:pageshadow="2"
     inkscape:zoom="1.8101934"
     inkscape:cx="262.54136"
     inkscape:cy="224.4359"
     inkscape:document-units="px"
     inkscape:current-layer="layer1"
     showgrid="false"
     units="px" />
  <metadata
     id="metadata6827">
    <rdf:RDF>
      <cc:Work
         rdf:about="">
        <dc:format>image/svg+xml</dc:format>
        <dc:type
           rdf:resource="http://purl.org/dc/dcmitype/StillImage" />
        <dc:title></dc:title>
      </cc:Work>
    </rdf:RDF>
  </metadata>
  <g
     inkscape:label="Layer 1"
     inkscape:groupmode="layer"
     id="layer1"
     transform="translate(0,-552.36218)">
    <path
       inkscape:connector-curvature="0"
       id="path3859"
       d="m 292.8969,792.99453 -36.25487,14.14063 42.60254,14.2334 -5.80079,-27.46583 -0.54688,-0.9082"
       style="fill:#b3b0a3;fill-opacity:1;fill-rule:nonzero;stroke:none" />
    <path
       inkscape:connector-curvature="0"
       id="path3861"
       d="m 256.27581,807.13516 0,0.36621 -0.54199,18.67188 43.14941,-4.53125 0.36134,-0.27344 -42.60254,-14.2334 -0.36621,0"
       style="fill:#aeab9e;fill-opacity:1;fill-rule:nonzero;stroke:none" />
    <path
       inkscape:connector-curvature="0"
       id="path3863"
       d="m 299.24456,821.36856 0.54199,0 14.86816,-9.0625 -21.21093,-18.40333 5.80078,27.46583"
       style="fill:#d7cfbf;fill-opacity:1;fill-rule:nonzero;stroke:none" />
    <path
       inkscape:connector-curvature="0"
       id="path3865"
       d="m 239.95745,824.36172 0.63965,0.36133 15.13671,1.4502 0.542,-18.67188 -16.31836,16.86035"
       style="fill:#e6d9cf;fill-opacity:1;fill-rule:nonzero;stroke:none" />
    <path
       inkscape:connector-curvature="0"
       id="path3867"
       d="m 322.45257,804.41543 0.90332,-13.59375 -0.26856,-1.18163 -4.80469,-6.61622 4.16992,21.3916"
       style="fill:#9eaea1;fill-opacity:1;fill-rule:nonzero;stroke:none" />
    <path
       inkscape:connector-curvature="0"
       id="path3869"
       d="m 256.27581,807.13516 -13.59863,-2.08008 -2.71973,19.30664 16.31836,-16.86035 0,-0.36621"
       style="fill:#e3d9cf;fill-opacity:1;fill-rule:nonzero;stroke:none" />
    <path
       inkscape:connector-curvature="0"
       id="path3871"
       d="m 314.65471,812.30606 7.52442,-5.1709 0,-0.26855 -28.73535,-12.96388 21.21093,18.40333"
       style="fill:#ded9cc;fill-opacity:1;fill-rule:nonzero;stroke:none" />
    <path
       inkscape:connector-curvature="0"
       id="path3873"
       d="m 318.28264,783.02383 4.80469,6.61622 -2.45116,-14.22852 -2.98829,6.34277 0.63476,1.26953"
       style="fill:#97aba6;fill-opacity:1;fill-rule:nonzero;stroke:none" />
    <path
       inkscape:connector-curvature="0"
       id="path3875"
       d="m 317.01311,781.7543 0.63477,0 2.98828,-6.34277 0.36622,-0.54687 -1.54298,-0.90333 -22.02636,-7.61718 0,0.36132 19.58007,15.04883"
       style="fill:#e8e8e1;fill-opacity:1;fill-rule:nonzero;stroke:none" />
    <path
       inkscape:connector-curvature="0"
       id="path3877"
       d="m 317.64788,781.7543 -0.63477,0 -23.56933,10.60547 -0.54688,0.63476 0.54688,0.9082 28.73535,12.96388 0.63476,-0.9082 -0.36132,-1.54298 -4.16993,-21.3916 -0.63476,-1.26953"
       style="fill:#dcdccf;fill-opacity:1;fill-rule:nonzero;stroke:none" />
    <path
       inkscape:connector-curvature="0"
       id="path3881"
       d="m 204.33245,798.70742 -1.53809,0.26856 6.97754,2.71973 -3.89648,-2.35351 -0.36133,-0.36622 -1.18164,-0.26856"
       style="fill:#9c9c91;fill-opacity:1;fill-rule:nonzero;stroke:none" />
    <path
       inkscape:connector-curvature="0"
       id="path3883"
       d="m 204.33245,798.43398 -0.63477,-0.36132 -0.54199,-0.27344 -1.54297,-0.63476 -1.81152,-0.54199 -0.90332,2.99316 0.90332,1.17675 2.99316,-1.8164 1.53809,-0.26856 0,-0.27344"
       style="fill:#d4d1ca;fill-opacity:1;fill-rule:nonzero;stroke:none" />
    <path
       inkscape:connector-curvature="0"
       id="path3885"
       d="m 203.15569,797.79922 0.54199,0.27344 0.63477,0.36132 0.63477,0 0,-0.36132 0.54687,-9.97559 -1.18164,1.27441 0,0.26857 -2.08496,5.16601 -0.63477,2.3584 1.54297,0.63476"
       style="fill:#eeebe3;fill-opacity:1;fill-rule:nonzero;stroke:none" />
    <path
       inkscape:connector-curvature="0"
       id="path3887"
       d="m 216.38811,799.61563 -11.42089,-1.18165 0.54687,0.542 0.90332,0.36622 11.51367,3.62303 -0.63476,-1.81151 -0.90821,-1.53809"
       style="fill:#d4ccc2;fill-opacity:1;fill-rule:nonzero;stroke:none" />
    <path
       inkscape:connector-curvature="0"
       id="path3889"
       d="m 204.33245,798.70742 1.18164,0.26856 -0.54687,-0.542 -0.63477,0 0,0.27344"
       style="fill:#e3ded1;fill-opacity:1;fill-rule:nonzero;stroke:none" />
    <path
       inkscape:connector-curvature="0"
       id="path3891"
       d="m 217.29632,801.15372 0.63476,1.81151 0.90821,1.18165 1.81152,2.98828 7.25098,12.14844 2.99316,1.4502 8.52051,3.35448 -2.17774,-2.99316 -19.9414,-19.9414"
       style="fill:#f3ebe1;fill-opacity:1;fill-rule:nonzero;stroke:none" />
    <path
       inkscape:connector-curvature="0"
       id="path3893"
       d="m 216.11956,792.99453 0,0.54688 21.11816,27.55371 2.17774,2.99316 0.54199,0.27344 2.71973,-19.30664 -26.55762,-12.06055"
       style="fill:#f5f0e6;fill-opacity:1;fill-rule:nonzero;stroke:none" />
    <path
       inkscape:connector-curvature="0"
       id="path3895"
       d="m 205.87542,799.3422 0.54199,0 -0.90332,-0.36622 0.36133,0.36622"
       style="fill:#aea89e;fill-opacity:1;fill-rule:nonzero;stroke:none" />
    <path
       inkscape:connector-curvature="0"
       id="path3897"
       d="m 203.42913,788.73672 -8.15918,-8.79394 5.70801,11.78223 1.54297,-1.4502 0.9082,-1.53809"
       style="fill:#c5bfb8;fill-opacity:1;fill-rule:nonzero;stroke:none" />
    <path
       inkscape:connector-curvature="0"
       id="path3899"
       d="m 202.24749,794.80606 2.08496,-5.16601 -1.81152,0.63476 -1.54297,1.4502 -0.26856,0.63476 0.26856,1.18164 1.26953,1.26465"
       style="fill:#ebe8e1;fill-opacity:1;fill-rule:nonzero;stroke:none" />
    <path
       inkscape:connector-curvature="0"
       id="path3901"
       d="m 204.33245,789.64005 0,-0.26857 1.18164,-1.27441 0,-0.26855 0.36133,-0.63476 -2.44629,1.54296 -0.9082,1.53809 1.81152,-0.63476"
       style="fill:#b0aea8;fill-opacity:1;fill-rule:nonzero;stroke:none" />
    <path
       inkscape:connector-curvature="0"
       id="path3903"
       d="m 205.51409,788.09707 -0.54687,9.97559 9.60937,-11.4209 -7.25098,-0.63476 -1.17675,0 -0.27344,0.26855 -0.36133,0.36621 0.36133,0.542 -0.36133,0.63476 0,0.26855"
       style="fill:#f3f0e8;fill-opacity:1;fill-rule:nonzero;stroke:none" />
    <path
       inkscape:connector-curvature="0"
       id="path3905"
       d="m 206.14886,786.017 -0.63477,-0.27344 0,0.9082 0.36133,-0.36621 0.27344,-0.26855"
       style="fill:#ebe6dc;fill-opacity:1;fill-rule:nonzero;stroke:none" />
    <path
       inkscape:connector-curvature="0"
       id="path3907"
       d="m 165.6264,808.04336 -0.90821,0.36134 -0.90332,0.9082 0.36133,0.54198 14.77539,-1.17675 1.54297,-28.10058 -14.86816,27.46581"
       style="fill:#dedccf;fill-opacity:1;fill-rule:nonzero;stroke:none" />
    <path
       inkscape:connector-curvature="0"
       id="path3909"
       d="m 180.49456,780.57755 0.27344,-0.9082 0,-0.27344 -8.79395,1.18164 0,0.63476 -7.25586,27.19239 0.90821,-0.36134 14.86816,-27.46581"
       style="fill:#e3dcd1;fill-opacity:1;fill-rule:nonzero;stroke:none" />
    <path
       inkscape:connector-curvature="0"
       id="path3911"
       d="m 198.89788,799.61563 0.90332,-2.99316 0.63477,-2.4463 0.54199,-0.63476 -0.26856,-1.18164 -19.03808,-12.41699 16.04492,22.39258 1.18164,-2.71973"
       style="fill:#ccc7bd;fill-opacity:1;fill-rule:nonzero;stroke:none" />
    <path
       inkscape:connector-curvature="0"
       id="path3913"
       d="m 268.96624,779.66935 26.28906,-0.90333 -32.63183,-27.83204 -1.18164,-0.54687 -0.26855,0.27344 6.88963,29.0088 0.90333,0"
       style="fill:#e3e1dc;fill-opacity:1;fill-rule:nonzero;stroke:none" />
    <path
       inkscape:connector-curvature="0"
       id="path3915"
       d="m 267.51604,779.66935 0.54687,0 -35.35644,-11.14747 0,0.26855 5.80078,12.42188 29.00879,-1.54296"
       style="fill:#fdfdfa;fill-opacity:1;fill-rule:nonzero;stroke:none" />
    <path
       inkscape:connector-curvature="0"
       id="path3917"
       d="m 238.50725,781.21231 -5.80078,-12.42188 -1.45019,1.81642 -15.41016,21.75292 22.66113,-11.14746"
       style="fill:#fdfdfa;fill-opacity:1;fill-rule:nonzero;stroke:none" />
    <path
       inkscape:connector-curvature="0"
       id="path3919"
       d="m 261.17328,750.66055 -27.19728,16.95312 -1.26953,0.90821 35.35644,11.14747 -6.88963,-29.0088"
       style="fill:#fdfdfa;fill-opacity:1;fill-rule:nonzero;stroke:none" />
    <path
       inkscape:connector-curvature="0"
       id="path3921"
       d="m 297.43304,766.70547 0,-0.36132 -0.90821,-0.54199 -3.08105,-1.54298 -30.82032,-13.3252 32.63184,27.83204 2.17774,-12.06055"
       style="fill:#dedcd7;fill-opacity:1;fill-rule:nonzero;stroke:none" />
    <path
       inkscape:connector-curvature="0"
       id="path3923"
       d="m 214.57659,783.56582 0.36621,1.54298 1.17676,-0.90333 8.15918,-14.50684 -3.90137,5.43947 -1.53808,2.44628 -3.3545,5.07813 -0.9082,0.90331"
       style="fill:#e8e6e6;fill-opacity:1;fill-rule:nonzero;stroke:none" />
    <path
       inkscape:connector-curvature="0"
       id="path3925"
       d="m 214.9428,785.38223 -0.36621,1.26953 1.26953,5.70801 15.41016,-21.75292 -15.13672,13.59862 -1.17676,0.90333 0,0.27343"
       style="fill:#fdfdfa;fill-opacity:1;fill-rule:nonzero;stroke:none" />
    <path
       inkscape:connector-curvature="0"
       id="path3927"
       d="m 208.59515,784.20547 0.54199,0 6.34765,-1.54296 3.3545,-5.07813 -12.69043,4.80469 -0.63477,3.35449 2.17285,-1.26953 0.90821,-0.26856"
       style="fill:#fdfdfd;fill-opacity:1;fill-rule:nonzero;stroke:none" />
    <path
       inkscape:connector-curvature="0"
       id="path3929"
       d="m 207.32561,786.017 6.07422,-2.08497 -4.26269,0.27344 -0.54199,0 -0.90821,0.26856 -2.17285,1.26953 0.63477,0.27344 1.17675,0"
       style="fill:#f3f0e8;fill-opacity:1;fill-rule:nonzero;stroke:none" />
    <path
       inkscape:connector-curvature="0"
       id="path3931"
       d="m 202.24749,794.80606 -1.26953,-1.26465 -0.54199,0.63476 -0.63477,2.4463 1.81152,0.54199 0.63477,-2.3584"
       style="fill:#c5c2b5;fill-opacity:1;fill-rule:nonzero;stroke:none" />
    <path
       inkscape:connector-curvature="0"
       id="path3961"
       d="m 171.70061,817.47207 24.7461,-13.95996 -17.49512,5.16602 -7.25098,8.79394"
       style="fill:#c7bfb5;fill-opacity:1;fill-rule:nonzero;stroke:none" />
    <path
       inkscape:connector-curvature="0"
       id="path3967"
       d="m 231.52972,827.98477 10.60547,-0.54199 -3.62794,-2.17773 -6.34277,2.17773 -0.63476,0.54199"
       style="fill:#c7bdae;fill-opacity:1;fill-rule:nonzero;stroke:none" />
    <path
       inkscape:connector-curvature="0"
       id="path3969"
       d="m 243.04339,804.14688 -0.36621,0.9082 13.59863,2.08008 -4.53125,-17.76368 -8.70117,14.7754"
       style="fill:#f5eee3;fill-opacity:1;fill-rule:nonzero;stroke:none" />
    <path
       inkscape:connector-curvature="0"
       id="path3971"
       d="m 293.44378,792.35977 1.81152,-13.59375 -26.28906,0.90333 23.93066,13.32518 0.54688,-0.63476"
       style="fill:#ebe6dc;fill-opacity:1;fill-rule:nonzero;stroke:none" />
    <path
       inkscape:connector-curvature="0"
       id="path3973"
       d="m 292.8969,792.99453 -23.93066,-13.32518 -1.4502,0 -15.41015,9.33593 40.79101,3.98925"
       style="fill:#ebe8dc;fill-opacity:1;fill-rule:nonzero;stroke:none" />
    <path
       inkscape:connector-curvature="0"
       id="path3975"
       d="m 252.10589,789.00528 -13.3252,-7.52442 4.2627,22.66602 8.70117,-14.7754 0.36133,-0.3662"
       style="fill:#fdfaf0;fill-opacity:1;fill-rule:nonzero;stroke:none" />
    <path
       inkscape:connector-curvature="0"
       id="path3977"
       d="m 251.74456,789.37148 4.53125,17.76368 0.36622,0 36.25487,-14.14063 -40.79101,-3.98925 -0.36133,0.3662"
       style="fill:#d7d1c2;fill-opacity:1;fill-rule:nonzero;stroke:none" />
    <path
       inkscape:connector-curvature="0"
       id="path3979"
       d="m 181.67132,779.94278 -0.90332,-0.27343 -0.27344,0.9082 -1.54297,28.10058 17.49512,-5.16602 1.26953,-0.54688 0,-0.62987 -16.04492,-22.39258"
       style="fill:#d7cfc7;fill-opacity:1;fill-rule:nonzero;stroke:none" />
    <path
       inkscape:connector-curvature="0"
       id="path3981"
       d="m 252.10589,789.00528 15.41015,-9.33593 -29.00879,1.54296 0.27344,0.26855 13.3252,7.52442"
       style="fill:#faf8f0;fill-opacity:1;fill-rule:nonzero;stroke:none" />
    <path
       inkscape:connector-curvature="0"
       id="path3983"
       d="m 163.54143,809.58633 0.63477,0.26855 -0.36133,-0.54198 -0.27344,0.27343"
       style="fill:#f0e3e3;fill-opacity:1;fill-rule:nonzero;stroke:none" />
    <path
       inkscape:connector-curvature="0"
       id="path3985"
       d="m 242.67718,805.05508 0.36621,-0.9082 -4.2627,-22.66602 -0.27344,-0.26855 -22.66113,11.14746 0.27344,0.63476 26.55762,12.06055"
       style="fill:#fdfdf5;fill-opacity:1;fill-rule:nonzero;stroke:none" />
    <path
       inkscape:connector-curvature="0"
       id="path3987"
       d="m 317.01311,781.7543 -21.75781,-2.98828 -1.81152,13.59375 23.56933,-10.60547"
       style="fill:#f5f3e8;fill-opacity:1;fill-rule:nonzero;stroke:none" />
    <path
       inkscape:connector-curvature="0"
       id="path3989"
       d="m 238.50725,825.26505 -1.26953,-0.90333 -5.07324,3.08106 6.34277,-2.17773"
       style="fill:#bfb5a6;fill-opacity:1;fill-rule:nonzero;stroke:none" />
    <path
       inkscape:connector-curvature="0"
       id="path3991"
       d="m 197.71624,802.33536 2.08496,-1.54298 -0.90332,-1.17675 -1.18164,2.71973"
       style="fill:#bab8b5;fill-opacity:1;fill-rule:nonzero;stroke:none" />
    <path
       inkscape:connector-curvature="0"
       id="path3993"
       d="m 283.19964,831.6127 13.32519,-7.79785 0,-0.36133 0.90821,-0.27344 1.45019,-1.53808 -43.14942,4.53125 27.46583,5.43945"
       style="fill:#b0ab9e;fill-opacity:1;fill-rule:nonzero;stroke:none" />
    <path
       inkscape:connector-curvature="0"
       id="path3995"
       d="m 217.29632,801.15372 19.9414,19.9414 -21.11816,-27.55371 0.26855,6.07422 0.90821,1.53809"
       style="fill:#e3d9cc;fill-opacity:1;fill-rule:nonzero;stroke:none" />
    <path
       inkscape:connector-curvature="0"
       id="path3997"
       d="m 297.43304,766.70547 -2.17774,12.06055 21.75781,2.98828 -19.58007,-15.04883"
       style="fill:#f3f3eb;fill-opacity:1;fill-rule:nonzero;stroke:none" />
    <path
       inkscape:connector-curvature="0"
       id="path3999"
       d="m 215.48479,782.66251 -6.34765,1.54296 4.26269,-0.27344 1.17676,-0.36621 0.9082,-0.90331"
       style="fill:#fdfdfd;fill-opacity:1;fill-rule:nonzero;stroke:none" />
    <path
       inkscape:connector-curvature="0"
       id="path4001"
       d="m 214.9428,785.1088 -0.36621,-1.54298 -1.17676,0.36621 -6.07422,2.08497 7.25098,0.63476 0.36621,-1.26953 0,-0.27343"
       style="fill:#fdfdfd;fill-opacity:1;fill-rule:nonzero;stroke:none" />
    <path
       inkscape:connector-curvature="0"
       id="path4003"
       d="m 215.84612,792.35977 -1.26953,-5.70801 -9.60937,11.4209 11.15234,-5.07813 -0.27344,-0.63476"
       style="fill:#faf8f3;fill-opacity:1;fill-rule:nonzero;stroke:none" />
    <path
       inkscape:connector-curvature="0"
       id="path4299"
       d="m 216.38811,799.61563 -0.26855,-6.07422 0,-0.54688 -11.15234,5.07813 0,0.36132 11.42089,1.18165"
       style="fill:#f5f5eb;fill-opacity:1;fill-rule:nonzero;stroke:none" />
    <path
       inkscape:connector-curvature="0"
       id="path4367"
       d="m 202.79436,798.97598 -2.99316,1.8164 -2.08496,1.54298 0,0.62987 15.04883,0.54688 -2.99317,-1.8164 -6.97754,-2.71973"
       style="fill:#b3aea3;fill-opacity:1;fill-rule:nonzero;stroke:none" />
    <path
       inkscape:connector-curvature="0"
       id="path4607"
       d="m 240.5971,824.72305 14.22851,9.33593 5.98145,3.62794 -5.07324,-11.51367 -15.13672,-1.4502"
       style="fill:#b8b3ae;fill-opacity:1;fill-rule:nonzero;stroke:none" />
    <path
       inkscape:connector-curvature="0"
       id="path4609"
       d="m 156.01702,782.38907 -3.08105,8.79394 19.03808,-9.9707 -15.95703,1.17676"
       style="fill:#f5f0e8;fill-opacity:1;fill-rule:nonzero;stroke:none" />
    <path
       inkscape:connector-curvature="0"
       id="path4611"
       d="m 154.2055,801.15372 0.27343,-1.53809 -0.9082,-2.99316 0.63477,4.53125"
       style="fill:#dcd1ca;fill-opacity:1;fill-rule:nonzero;stroke:none" />
    <path
       inkscape:connector-curvature="0"
       id="path4613"
       d="m 163.81487,809.3129 -0.27344,-0.63477 -9.0625,-9.0625 -0.27343,1.53809 -0.36133,3.62793 0.36133,1.17676 0.90332,1.54296 8.43261,2.08496 0.27344,-0.27343"
       style="fill:#ebe1d4;fill-opacity:1;fill-rule:nonzero;stroke:none" />
    <path
       inkscape:connector-curvature="0"
       id="path4615"
       d="m 153.57073,796.62247 -0.63476,-2.17774 -0.27344,-1.17676 -0.27344,-0.63476 -1.26953,6.70899 2.72461,5.43945 0.36133,-3.62793 -0.63477,-4.53125"
       style="fill:#e3e3de;fill-opacity:1;fill-rule:nonzero;stroke:none" />
    <path
       inkscape:connector-curvature="0"
       id="path4617"
       d="m 203.42913,788.73672 2.44629,-1.54296 -0.36133,-0.542 0,-0.9082 0.63477,-3.35449 -0.63477,-0.27344 -9.9707,-3.34961 -0.90821,0 0.63477,1.17676 8.15918,8.79394"
       style="fill:#ccc7bf;fill-opacity:1;fill-rule:nonzero;stroke:none" />
    <path
       inkscape:connector-curvature="0"
       id="path4619"
       d="m 180.768,779.66935 0.90332,0.27343 19.03808,12.41699 0.26856,-0.63476 -5.70801,-11.78223 -0.63477,-1.17676 -0.9082,-0.27344 -12.95898,0.90333 0,0.27344"
       style="fill:#cfc7c2;fill-opacity:1;fill-rule:nonzero;stroke:none" />
    <path
       inkscape:connector-curvature="0"
       id="path4621"
       d="m 193.72698,778.49258 -11.78223,-4.53125 -1.17675,5.43458 12.95898,-0.90333"
       style="fill:#c2bfba;fill-opacity:1;fill-rule:nonzero;stroke:none" />
    <path
       inkscape:connector-curvature="0"
       id="path4623"
       d="m 181.94475,773.96133 -15.68359,-4.2627 5.71289,10.87892 9.9707,-6.61622"
       style="fill:#f8f5f0;fill-opacity:1;fill-rule:nonzero;stroke:none" />
    <path
       inkscape:connector-curvature="0"
       id="path4625"
       d="m 180.768,779.39591 1.17675,-5.43458 -9.9707,6.61622 8.79395,-1.18164"
       style="fill:#f5f3ee;fill-opacity:1;fill-rule:nonzero;stroke:none" />
    <path
       inkscape:connector-curvature="0"
       id="path4627"
       d="m 171.97405,780.57755 -5.71289,-10.87892 -10.24414,12.69044 15.95703,-1.17676 0,-0.63476"
       style="fill:#ebe8e6;fill-opacity:1;fill-rule:nonzero;stroke:none" />
    <path
       inkscape:connector-curvature="0"
       id="path4629"
       d="m 152.93597,794.44473 0.63476,2.17774 0.9082,2.99316 9.0625,9.0625 -10.8789,-16.31836 -0.27344,0.27344 0.27344,0.63476 0.27344,1.17676"
       style="fill:#ebe1d7;fill-opacity:1;fill-rule:nonzero;stroke:none" />
    <path
       inkscape:connector-curvature="0"
       id="path4631"
       d="m 214.9428,805.68497 -1.26953,-0.62989 4.89258,17.49024 1.81152,1.54296 9.60938,3.62794 -15.04395,-22.03125"
       style="fill:#d4cabd;fill-opacity:1;fill-rule:nonzero;stroke:none" />
    <path
       inkscape:connector-curvature="0"
       id="path4633"
       d="m 213.67327,804.14688 -0.27344,-0.27343 -2.71972,0.9082 -7.25098,3.26171 15.13672,14.50196 -4.89258,-17.49024 0,-0.9082"
       style="fill:#bdb5ae;fill-opacity:1;fill-rule:nonzero;stroke:none" />
    <path
       inkscape:connector-curvature="0"
       id="path4639"
       d="m 171.70061,818.01407 13.86719,-2.35352 17.86133,-7.61719 7.25098,-3.26171 -38.9795,13.23242"
       style="fill:#bdb8ae;fill-opacity:1;fill-rule:nonzero;stroke:none" />
    <path
       inkscape:connector-curvature="0"
       id="path4641"
       d="m 164.1762,809.85488 -0.63477,-0.26855 -8.43261,-2.08496 1.45019,1.4502 12.69043,8.15429 -5.07324,-7.25098"
       style="fill:#cac5ba;fill-opacity:1;fill-rule:nonzero;stroke:none" />
    <path
       inkscape:connector-curvature="0"
       id="path4643"
       d="m 261.71526,838.32168 8.79396,0 8.15917,-1.81152 -16.04492,1.44531 -0.90821,0.36621"
       style="fill:#bab3ab;fill-opacity:1;fill-rule:nonzero;stroke:none" />
    <path
       inkscape:connector-curvature="0"
       id="path4645"
       d="m 213.39983,803.87345 -0.63476,-0.36134 -15.04883,-0.54688 -1.26953,0.54688 -24.7461,13.95996 -0.63476,0.542 0.63476,0 38.9795,-13.23242 2.71972,-0.9082"
       style="fill:#b8b5b0;fill-opacity:1;fill-rule:nonzero;stroke:none" />
    <path
       inkscape:connector-curvature="0"
       id="path4647"
       d="m 156.55901,808.95157 5.80567,6.34278 7.25097,2.71972 -0.36621,-0.90821 -12.69043,-8.15429"
       style="fill:#cac5bd;fill-opacity:1;fill-rule:nonzero;stroke:none" />
    <path
       inkscape:connector-curvature="0"
       id="path4649"
       d="m 178.95159,808.67813 -14.77539,1.17675 5.07324,7.25098 0.36621,0.90821 1.17676,0.36133 0.27344,-0.36133 0.63476,-0.542 7.25098,-8.79394"
       style="fill:#c2bab0;fill-opacity:1;fill-rule:nonzero;stroke:none" />
    <path
       inkscape:connector-curvature="0"
       id="path4651"
       d="m 163.81487,809.3129 0.90332,-0.9082 7.25586,-27.19239 -19.03808,9.9707 -0.27344,1.17676 10.8789,16.31836 0.27344,0.63477"
       style="fill:#f0e6dc;fill-opacity:1;fill-rule:nonzero;stroke:none" />
    <path
       inkscape:connector-curvature="0"
       id="path4653"
       d="m 322.45257,804.41543 0.36132,1.54298 -0.63476,0.9082 0,0.26855 0.63476,7.61719 17.22169,-15.41015 0.27343,-1.26954 -16.95312,-7.25098 -0.90332,13.59375"
       style="fill:#8c9c91;fill-opacity:1;fill-rule:nonzero;stroke:none" />
    <path
       inkscape:connector-curvature="0"
       id="path4655"
       d="m 321.00238,774.86466 1.17675,0.27344 9.9707,2.44628 -22.02637,-9.0625 9.33594,5.43945 1.54298,0.90333"
       style="fill:#babab8;fill-opacity:1;fill-rule:nonzero;stroke:none" />
    <path
       inkscape:connector-curvature="0"
       id="path4657"
       d="m 314.65471,812.30606 7.52442,2.98829 0.63476,-0.542 -0.63476,-7.61719 -7.52442,5.1709"
       style="fill:#cfcabd;fill-opacity:1;fill-rule:nonzero;stroke:none" />
    <path
       inkscape:connector-curvature="0"
       id="path4659"
       d="m 321.00238,774.86466 -0.36622,0.54687 2.45117,14.22852 0.26856,1.18163 11.78711,-8.43261 -0.27344,-0.63477 -12.69043,-6.6162 -1.17675,-0.27344"
       style="fill:#9caeab;fill-opacity:1;fill-rule:nonzero;stroke:none" />
    <path
       inkscape:connector-curvature="0"
       id="path4661"
       d="m 334.86956,781.7543 -1.17676,-3.62793 -1.54297,-0.54199 -9.9707,-2.44628 12.69044,6.6162"
       style="fill:#a1b0ab;fill-opacity:1;fill-rule:nonzero;stroke:none" />
    <path
       inkscape:connector-curvature="0"
       id="path4663"
       d="m 340.30901,798.07266 -5.16601,-15.68359 -11.78711,8.43261 16.95312,7.25098"
       style="fill:#91a39c;fill-opacity:1;fill-rule:nonzero;stroke:none" />
    <path
       inkscape:connector-curvature="0"
       id="path4665"
       d="m 299.78655,821.36856 4.2627,-0.90333 18.12988,-5.17088 -7.52442,-2.98829 -14.86816,9.0625"
       style="fill:#bdb8a8;fill-opacity:1;fill-rule:nonzero;stroke:none" />
    <path
       inkscape:connector-curvature="0"
       id="path4667"
       d="m 299.24456,821.36856 -0.36133,0.27344 -1.45019,1.53808 -0.90821,0.27344 0,0.36133 -10.33203,8.70117 17.85645,-12.05079 -4.2627,0.90333 -0.54199,0"
       style="fill:#b0aba8;fill-opacity:1;fill-rule:nonzero;stroke:none" />
    <path
       inkscape:connector-curvature="0"
       id="path4669"
       d="m 232.16448,827.44278 5.07324,-3.08106 -6.34277,-3.62792 -2.99316,-1.4502 -7.25098,-12.14844 -6.97754,-2.98828 0,0.9082 1.26953,0.62989 15.04395,22.03125 0.63476,0.26855 0.90821,0 0.63476,-0.54199"
       style="fill:#ded4ca;fill-opacity:1;fill-rule:nonzero;stroke:none" />
    <path
       inkscape:connector-curvature="0"
       id="path4673"
       d="m 262.62347,750.93398 30.82031,13.3252 -30.18555,-16.95312 -2.08495,-0.90333 0.26855,3.98438 1.18164,0.54687"
       style="fill:#e3e1dc;fill-opacity:1;fill-rule:nonzero;stroke:none" />
    <path
       inkscape:connector-curvature="0"
       id="path4675"
       d="m 319.4594,773.96133 -9.33594,-5.43945 -3.35448,-1.54297 -9.33594,-0.63476 22.02636,7.61718"
       style="fill:#ebebe6;fill-opacity:1;fill-rule:nonzero;stroke:none" />
    <path
       inkscape:connector-curvature="0"
       id="path4677"
       d="m 224.9135,768.52188 0,0.26855 -0.63476,0.63477 0,0.27343 -8.15918,14.50684 15.13672,-13.59862 1.45019,-1.81642 0,-0.26855 -3.26172,-6.70898 -1.26953,1.53808 -0.54199,0.63477 -2.17773,3.62792 -0.542,0.90821"
       style="fill:#f8f8f5;fill-opacity:1;fill-rule:nonzero;stroke:none" />
    <path
       inkscape:connector-curvature="0"
       id="path4679"
       d="m 233.976,767.61367 14.7754,-18.49609 -19.30665,12.69532 3.26172,6.70898 1.26953,-0.90821"
       style="fill:#cfcfcc;fill-opacity:1;fill-rule:nonzero;stroke:none" />
    <path
       inkscape:connector-curvature="0"
       id="path4681"
       d="m 224.27874,769.69863 0,-0.27343 0.63476,-0.63477 0,-0.26855 0.542,-0.90821 2.17773,-3.62792 -23.93555,15.41016 16.67969,-4.25781 3.90137,-5.43947"
       style="fill:#cfcfcc;fill-opacity:1;fill-rule:nonzero;stroke:none" />
    <path
       inkscape:connector-curvature="0"
       id="path4683"
       d="m 206.14886,782.38907 12.69043,-4.80469 1.53808,-2.44628 -16.67969,4.25781 -0.54199,0.27344 -0.36133,0.27343 2.71973,2.17285 0.63477,0.27344"
       style="fill:#ebebe6;fill-opacity:1;fill-rule:nonzero;stroke:none" />
    <path
       inkscape:connector-curvature="0"
       id="path4685"
       d="m 261.17328,750.66055 -10.87892,-2.44629 -1.54296,0.90332 -14.7754,18.49609 27.19728,-16.95312"
       style="fill:#f5f5f3;fill-opacity:1;fill-rule:nonzero;stroke:none" />
    <path
       inkscape:connector-curvature="0"
       id="path4687"
       d="m 296.52483,765.80216 -8.78907,-8.5254 -24.47753,-9.9707 30.18555,16.95312 3.08105,1.54298"
       style="fill:#cccac7;fill-opacity:1;fill-rule:nonzero;stroke:none" />
    <path
       inkscape:connector-curvature="0"
       id="path4689"
       d="m 261.44183,750.38711 -0.26855,-3.98438 -10.87892,1.81153 10.87892,2.44629 0.26855,-0.27344"
       style="fill:#f0f0e8;fill-opacity:1;fill-rule:nonzero;stroke:none" />
    <path
       inkscape:connector-curvature="0"
       id="path4691"
       d="m 297.43304,766.34415 9.33594,0.63476 -19.03322,-9.70215 8.78907,8.5254 0.90821,0.54199"
       style="fill:#c2c2bf;fill-opacity:1;fill-rule:nonzero;stroke:none" />
    <path
       inkscape:connector-curvature="0"
       id="path4693"
       d="m 202.79436,779.94278 -7.25097,-1.17676 9.9707,3.34961 -2.71973,-2.17285"
       style="fill:#cfcfc5;fill-opacity:1;fill-rule:nonzero;stroke:none" />
    <path
       inkscape:connector-curvature="0"
       id="path4771"
       d="m 262.62347,837.95547 16.04492,-1.44531 0.63476,0 0.90333,-0.36621 1.45018,-0.26855 1.54298,-4.2627 -20.57618,6.34277"
       style="fill:#b3aea3;fill-opacity:1;fill-rule:nonzero;stroke:none" />
    <path
       inkscape:connector-curvature="0"
       id="path4775"
       d="m 231.52972,827.98477 -0.90821,0 7.52442,0.63476 4.53125,-0.90331 -0.54199,-0.27344 -10.60547,0.54199"
       style="fill:#bdb8ab;fill-opacity:1;fill-rule:nonzero;stroke:none" />
    <path
       inkscape:connector-curvature="0"
       id="path4777"
       d="m 239.95745,824.36172 -0.54199,-0.27344 -8.52051,-3.35448 6.34277,3.62792 1.26953,0.90333 3.62794,2.17773 0.54199,0.27344 12.14843,6.34276 -14.22851,-9.33593 -0.63965,-0.36133"
       style="fill:#c5bdb5;fill-opacity:1;fill-rule:nonzero;stroke:none" />
    <path
       inkscape:connector-curvature="0"
       id="path4795"
       d="m 217.93108,802.96523 -11.51367,-3.62303 -0.54199,0 3.89648,2.35351 2.99317,1.8164 0.63476,0.36134 5.43946,0.27343 -0.90821,-1.18165"
       style="fill:#bdb8ab;fill-opacity:1;fill-rule:nonzero;stroke:none" />
    <path
       inkscape:connector-curvature="0"
       id="path4859"
       d="m 283.19964,831.6127 -27.46583,-5.43945 5.07325,11.51367 0.9082,0.63476 0.90821,-0.36621 20.57617,-6.34277"
       style="fill:#b5b0a8;fill-opacity:1;fill-rule:nonzero;stroke:none" />
    <path
       inkscape:connector-curvature="0"
       id="path4885"
       d="m 283.19964,831.6127 -1.54298,4.2627 3.62794,-2.71973 0.9082,-0.27344 0,-0.36621 10.33203,-8.70117 -13.32519,7.79785"
       style="fill:#aea899;fill-opacity:1;fill-rule:nonzero;stroke:none" />
    <path
       inkscape:connector-curvature="0"
       id="path4899"
       d="m 218.83929,804.14688 -5.43946,-0.27343 0.27344,0.27343 6.97754,2.98828 -1.81152,-2.98828"
       style="fill:#c2b8ab;fill-opacity:1;fill-rule:nonzero;stroke:none" />
  </g>
</svg>
